<svg xmlns="http://www.w3.org/2000/svg" class="h-5 w-5" viewBox="0 0 24 24" fill="currentColor">
          <path d="M9.52 12.664C10.333 13.099 11.262 13.324 12.22 13.312C14.568 13.312 16.473 11.436 16.473 9.156C16.473 6.876 14.568 5 12.22 5C9.872 5 7.967 6.876 7.967 9.156C7.967 9.964 8.202 10.717 8.602 11.359L8.48 12.394L7.48 12.664L9.52 12.664Z"/>
          <path d="M12 22C17.523 22 22 17.523 22 12C22 6.477 17.523 2 12 2C6.477 2 2 6.477 2 12C2 13.821 2.487 15.53 3.338 17L2.5 21.5L7 20.662C8.47 21.513 10.179 22 12 22Z"/>
        </svg>